<svg id="Calque_1" data-name="Calque 1" xmlns="http://www.w3.org/2000/svg" viewBox="0 0 467.45 548.92"><defs><style>.cls-1{fill:#2daee0;}.cls-2{fill:#2c2e36;}</style></defs><rect class="cls-1" x="25.63" y="343.18" width="103.02" height="51.5"/><rect class="cls-1" x="337.6" y="496.19" width="104.21" height="51.61"/><path class="cls-1" d="M485.18,510.73a64.4,64.4,0,0,0-64.25-64.55H393.08v51.47h27.84c4.89,0,9.35,4.2,10.8,8.88,2.44,7.86-3.34,16.16-10.8,16.16h0V526l-16.69,49.32h19.06v-.06A64.4,64.4,0,0,0,485.18,510.73Z" transform="translate(-69 -103)"/><path class="cls-1" d="M184.53,522.69h0v51.47h0c-4.89,0-9.36,4.19-10.81,8.88-2.43,7.86,3.35,16.15,10.81,16.15h0v51.65c-35.49,0-64.26-28-64.26-63.61A64.4,64.4,0,0,1,184.53,522.69Z" transform="translate(-69 -103)"/><path class="cls-2" d="M212.62,488.62H200.41l-1.73,9.06H184.53l11.54-48.45v-3.05h21.32l11.69,51.5H214.27Zm-10-11.6h7.94l-2.75-15.24-1.08-6.66-1.08,6.66Z" transform="translate(-69 -103)"/><path class="cls-2" d="M232.33,446.18h14.44v39.54h14.94v12H232.33Z" transform="translate(-69 -103)"/><path class="cls-2" d="M288.37,483.61c0-2.25-2-3.91-9.84-6.53-7.51-2.45-13.5-6.81-13.5-15.81,0-10.88,9-16.17,18.71-16.17s18.48,5.21,18,17.77l-13.35.37c0-4.3-1.75-6.18-4.77-6.18-2.22,0-4.11,1.09-4.11,3.19,0,2.62,1.44,3.93,9.83,6.89,7.94,2.84,13.5,6.39,13.5,16.12s-8.08,15.51-18.85,15.51c-10.33,0-19.86-5.36-19.28-17.76l13.35-.37c0,4.5,2.69,6.16,5.86,6.16C286.7,486.8,288.37,485.8,288.37,483.61Z" transform="translate(-69 -103)"/><path class="cls-2" d="M330.88,488.62H318.61l-1.73,9.06H302.8l11.55-48.45v-3.05h21.3l11.7,51.5h-14.8ZM320.93,477h7.94l-2.73-15.24-1.1-6.66L324,461.78Z" transform="translate(-69 -103)"/><path class="cls-2" d="M372.62,463.24c0-4.14-1.87-6.18-4.76-6.18s-4.77,1.82-4.91,5.52c-.21,4.93-.14,12.77,0,18.27.14,3.92,1.95,5.95,4.85,5.95,2.6,0,5.13-2,5.13-6.16l13.35.37c0,10.51-7.14,17.76-18.85,17.76-11,0-18.69-6.39-18.92-17.19-.14-8-.22-14.44,0-19.65.43-11.25,9.53-16.83,19.35-16.83s18.42,5.58,18.06,17.77Z" transform="translate(-69 -103)"/><path class="cls-2" d="M390.32,446.18h30.6v12H404.75v7.63h14.66v11.52H404.75v8.34h16.17v12h-30.6Z" transform="translate(-69 -103)"/><path class="cls-2" d="M199,554.82v19.37h-14.5v-51.5s6.94-.15,14.59-.15c12.85,0,23,2.4,23,14.44a14.35,14.35,0,0,1-9.53,14,9.25,9.25,0,0,1,3.62,4.36c2.89,5.95,8.23,18.86,8.23,18.86H209.1l-7.95-19.37Zm2-21a9.64,9.64,0,0,0-2,.07v10.74a4,4,0,0,0,1.58.15c3.32,0,7.22-.74,7.22-5.52,0-3.55-2-5.44-6.79-5.44Z" transform="translate(-69 -103)"/><path class="cls-2" d="M227.41,522.69H258v12h-16.1v7.63h14.66v11.52H241.91v8.34h16.17v12H227.41Z" transform="translate(-69 -103)"/><path class="cls-2" d="M286.89,560.12c0-2.25-1.94-3.91-9.82-6.53-7.51-2.46-13.5-6.81-13.5-15.81,0-10.88,9-16.18,18.7-16.18s18.48,5.22,18,17.78l-13.36.36c0-4.29-1.73-6.17-4.77-6.17-2.24,0-4.11,1.08-4.11,3.19,0,2.62,1.45,3.92,9.82,6.89,7.94,2.84,13.51,6.38,13.51,16.12s-8.1,15.5-18.85,15.5c-10.32,0-19.85-5.36-19.28-17.75l13.36-.37c0,4.5,2.66,6.16,5.84,6.16C285.24,563.31,286.89,562.3,286.89,560.12Z" transform="translate(-69 -103)"/><path class="cls-2" d="M306.39,522.69H337v12H320.83v7.63h14.66v11.52H320.83v8.34H337v12H306.39Z" transform="translate(-69 -103)"/><path class="cls-2" d="M367.62,565.13H355.34l-1.73,9.06H339.52l11.57-48.46v-3h21.3l11.7,51.5h-14.8Zm-10-11.6h7.94l-2.75-15.24-1.08-6.67-1.08,6.67Z" transform="translate(-69 -103)"/><path class="cls-2" d="M423.29,522.69s.22,18.36,0,35.91c-.14,10.88-9,16.67-19.06,16.67s-18.47-5.65-18.63-16.81c-.21-16.12,0-35.77,0-35.77h13.8c-.08,4.43-.14,30.18,0,34.75,0,3.7,2.16,5.87,5.13,5.87s4.77-2.25,4.91-5.87c.14-4.22,0-30,0-34.75Z" transform="translate(-69 -103)"/><path class="cls-2" d="M225.25,599.34v51.5H212.54l-12.13-21.17-2.16-5.95v27.12H184.53v-51.5H197l12.71,23.93,1.73,4.78V599.34Z" transform="translate(-69 -103)"/><path class="cls-2" d="M232.43,599.34h30.62v12H246.88V619h14.66V630.5H246.88v8.34h16.17v12H232.43Z" transform="translate(-69 -103)"/><path class="cls-2" d="M306.58,599.34s.23,18.36,0,35.91c-.14,10.88-9,16.67-19,16.67s-18.48-5.65-18.63-16.81c-.22-16.12,0-35.77,0-35.77h13.79c0,4.43-.14,30.18,0,34.75.08,3.7,2.18,5.87,5.13,5.87s4.76-2.25,4.91-5.87c.14-4.22.08-30,0-34.75Z" transform="translate(-69 -103)"/><path class="cls-2" d="M320.73,611.35H309.27v-12h37.4v12H335.19v39.54H320.73Z" transform="translate(-69 -103)"/><path class="cls-2" d="M364.71,631.47v19.37H350.28v-51.5s6.92-.15,14.58-.15c12.85,0,23,2.4,23,14.44a14.35,14.35,0,0,1-9.53,14A9.44,9.44,0,0,1,382,632c2.89,5.95,8.24,18.86,8.24,18.86H374.83l-7.94-19.37Zm2-21a9.76,9.76,0,0,0-2,.07v10.74a4.29,4.29,0,0,0,1.59.15c3.32,0,7.23-.74,7.23-5.52,0-3.55-2-5.44-6.8-5.44Z" transform="translate(-69 -103)"/><path class="cls-2" d="M393.16,599.34h30.62v12H407.61V619h14.66V630.5H407.61v8.34h16.17v12H393.16Z" transform="translate(-69 -103)"/><path class="cls-1" d="M387,347.28,369.75,242.4a8.77,8.77,0,0,0-8.63-7.36H283.31L259.17,110.12a8.74,8.74,0,0,0-17.32,1.09l-18.21,275.4a8.77,8.77,0,0,0,11,9.09l93.25-24.57a4.1,4.1,0,0,0,2,0L344,367.47a4.06,4.06,0,0,0,1.85-1.08l34.78-9.17A8.79,8.79,0,0,0,387,347.28Zm-44.76,1.87a130.26,130.26,0,0,0-93.42-78.41l1.25-18.87a4.81,4.81,0,0,0,1.61.5c51.2,6.09,94.11,42.6,108.74,92Zm-44.34,11.68a83.49,83.49,0,0,0-52.13-43.94l1.53-23.23A107.6,107.6,0,0,1,320.16,355Zm62.48-67.49a158.21,158.21,0,0,0-44.9-40.71h38.19Zm-95.3-60.26c-4.18-.83-8.41-1.5-12.7-2a4.93,4.93,0,0,0-.94,0L254.84,180ZM244.17,341.34a61.33,61.33,0,0,1,30.12,25.72l-32.38,8.53Z" transform="translate(-69 -103)"/><ellipse class="cls-2" cx="25.63" cy="368.93" rx="25.63" ry="25.75"/><ellipse class="cls-2" cx="441.81" cy="521.94" rx="25.63" ry="25.75"/></svg>