<?xml version="1.0" encoding="UTF-8" standalone="no"?>
<!-- Created with Inkscape (http://www.inkscape.org/) -->

<svg
   width="367"
   height="202"
   id="svg3431"
   version="1.1"
   inkscape:version="1.3.2 (091e20ef0f, 2023-11-25)"
   sodipodi:docname="lafab logo fond blanc onlypath.svg"
   viewBox="0 0 344.0625 189.375"
   inkscape:export-filename="lafab logo fond blanc.png"
   inkscape:export-xdpi="96"
   inkscape:export-ydpi="96"
   xmlns:inkscape="http://www.inkscape.org/namespaces/inkscape"
   xmlns:sodipodi="http://sodipodi.sourceforge.net/DTD/sodipodi-0.dtd"
   xmlns="http://www.w3.org/2000/svg"
   xmlns:svg="http://www.w3.org/2000/svg"
   xmlns:rdf="http://www.w3.org/1999/02/22-rdf-syntax-ns#"
   xmlns:cc="http://creativecommons.org/ns#"
   xmlns:dc="http://purl.org/dc/elements/1.1/">
  <defs
     id="defs3" />
  <sodipodi:namedview
     inkscape:document-units="mm"
     id="base"
     pagecolor="#0032ff"
     bordercolor="#666666"
     borderopacity="1.0"
     inkscape:pageopacity="0.0"
     inkscape:pageshadow="2"
     inkscape:zoom="2.8"
     inkscape:cx="166.25"
     inkscape:cy="124.46429"
     inkscape:current-layer="g4792-46-1-1"
     showgrid="false"
     inkscape:window-width="1920"
     inkscape:window-height="1051"
     inkscape:window-x="0"
     inkscape:window-y="1080"
     inkscape:window-maximized="1"
     inkscape:showpageshadow="2"
     inkscape:pagecheckerboard="0"
     inkscape:deskcolor="#d1d1d1"
     inkscape:export-bgcolor="#ffffff00" />
  <metadata
     id="metadata4">
    <rdf:RDF>
      <cc:Work
         rdf:about="">
        <dc:format>image/svg+xml</dc:format>
        <dc:type
           rdf:resource="http://purl.org/dc/dcmitype/StillImage" />
      </cc:Work>
    </rdf:RDF>
  </metadata>
  <g
     inkscape:label="Layer 1"
     inkscape:groupmode="layer"
     id="layer1"
     transform="translate(-123.39213,-141.49763)">
    <g
       id="g4792-46-1-1"
       transform="matrix(0.06604642,0,0,0.06604642,952.43374,311.65261)"
       inkscape:export-xdpi="300"
       inkscape:export-ydpi="300">
      <rect
         style="fill:#ffffff;fill-opacity:1;stroke:none;stroke-width:13.4122;stroke-linecap:square"
         id="rect1"
         width="5209.4048"
         height="2867.3013"
         x="-12552.409"
         y="-2576.2937"
         ry="227.11299"
         rx="227.11299" />
      <path
         sodipodi:nodetypes="ccccc"
         inkscape:connector-curvature="0"
         id="path4573-3-0-74-7"
         d="M -12413.649,151.39854 V -2224.2044 l 1303.213,-212.4803 V 151.39854 Z"
         style="fill:#ff6600;stroke:none" />
      <path
         sodipodi:nodetypes="ccccc"
         inkscape:connector-curvature="0"
         id="path4575-7-7-09-4"
         d="m -11110.436,-2436.6847 616.192,212.4803 V 151.39854 h -616.192 z"
         style="fill:#000000;stroke:none" />
      <g
         id="text3351-1-9-6-82-77-8-9"
         style="font-weight:bold;line-height:0%;font-family:Aharoni;-inkscape-font-specification:'Aharoni Bold';letter-spacing:0px;word-spacing:0px"
         aria-label="LA&#10;FABRIQUE">
        <path
           style="font-size:953.305px;line-height:90%;letter-spacing:50px;fill:#ffffff"
           d="m -11925.233,-1001.4083 h -363.54 v -635.3815 h 165.246 v 497.1336 h 198.294 z m 738.447,0 h -176.417 l -40.963,-110.7845 h -228.085 l -43.756,110.7845 h -174.555 l 244.377,-635.3815 h 180.142 z m -262.066,-236.4643 -68.426,-202.4843 -69.356,202.4843 z"
           id="path1" />
        <path
           style="font-size:953.305px;line-height:90%;letter-spacing:50px"
           d="m -11924.767,-640.56751 h -198.76 v 107.5261 h 181.072 v 138.24784 h -181.072 v 251.35972 h -165.246 v -635.38151 h 364.006 z m 752.411,497.13366 h -176.418 l -40.962,-110.78447 h -228.086 l -43.755,110.78447 h -174.555 l 244.377,-635.38151 h 180.142 z m -262.066,-236.46433 -68.426,-202.48421 -69.356,202.48421 z"
           id="path2" />
        <path
           style="font-size:953.305px;line-height:90%;letter-spacing:50px;fill:#ffffff"
           d="m -10565.176,-324.04046 q 0,71.21858 -40.496,115.90475 -58.651,64.70186 -178.745,64.70186 h -264.859 v -635.38151 h 245.774 q 178.745,0 178.745,165.71122 0,49.80647 -19.55,83.32109 -16.292,28.39434 -50.272,48.41002 76.339,15.82636 104.268,60.97801 25.135,41.4278 25.135,96.35456 z m -212.259,-267.18607 q 0,-43.28973 -39.1,-57.25416 -13.965,-4.65481 -37.239,-4.65481 h -30.256 v 124.28342 h 30.256 q 42.825,0 61.444,-20.94665 14.895,-16.75731 14.895,-41.4278 z m 47.014,256.01452 q 0,-55.39223 -57.254,-65.16733 -18.154,-2.79289 -62.375,-2.79289 h -33.98 v 134.05852 h 36.773 q 63.305,0 88.441,-14.89539 28.395,-16.75732 28.395,-51.20291 z"
           id="path3" />
        <path
           style="font-size:953.305px;line-height:90%;letter-spacing:50px"
           d="m -9881.656,-143.43385 h -205.743 l -157.332,-243.91202 v 243.91202 h -165.246 v -635.38151 h 256.946 q 112.646,0 166.6418,67.49474 43.7552,54.46127 43.7552,128.00726 0,84.25206 -50.2719,134.524 -32.1181,32.11819 -88.4411,44.68617 z m -232.74,-430.56989 q 0,-33.98011 -24.671,-57.25415 -23.274,-21.87761 -74.942,-21.87761 h -30.722 v 158.72901 h 30.722 q 52.133,0 74.942,-21.87761 24.671,-23.73953 24.671,-57.71964 z m 517.3425,430.56989 h -165.2458 v -635.38151 h 165.2458 z m 883.2107,18.15375 -151.7468,23.27405 -50.2719,-59.11608 q -81.9246,40.49684 -174.0899,40.49684 -167.1076,0 -265.7896,-111.24995 -86.114,-97.28551 -86.114,-227.1547 0,-130.33467 86.114,-227.62019 98.682,-111.24995 265.7896,-111.24995 167.5732,0 265.7896,111.24995 86.114,97.751 86.114,227.62019 0,124.74889 -83.7865,224.36182 z m -195.9674,-333.74984 q 0,-65.63282 -43.2898,-115.90476 -53.5303,-62.37445 -136.8514,-62.37445 -83.3211,0 -136.8514,62.83993 -43.2897,50.73743 -43.2897,115.43928 0,64.23637 42.8242,114.97379 53.0649,62.83993 136.8514,62.83993 23.7396,0 51.6684,-6.98221 l -101.9403,-102.40581 155.4706,-19.08472 45.1517,47.94454 q 30.2563,-46.08262 30.2563,-97.28552 z m 880.418,46.54809 q 0,57.25416 -9.3096,97.751 -14.4299,62.83993 -68.8912,114.50832 -77.2698,73.08051 -206.6735,73.08051 -131.7311,0 -205.7426,-74.47695 -39.1004,-39.1004 -53.5303,-98.21648 -10.2406,-41.89329 -10.2406,-112.6464 v -366.33351 h 165.2458 v 343.99043 q 0,41.4278 1.3964,61.90897 4.6548,64.70185 59.1161,90.3033 22.3431,10.70606 49.341,10.70606 60.5125,0 91.2342,-42.35876 22.8086,-31.18723 22.8086,-120.55957 v -343.99043 h 165.2457 z m 544.8066,269.048 h -361.6787 v -635.38151 h 361.6787 v 138.24785 h -196.433 v 107.5261 h 185.7269 v 138.24784 h -185.7269 v 113.11187 h 196.433 z"
           id="path4" />
      </g>
      <path
         inkscape:connector-curvature="0"
         id="path4583-9-5-51-2"
         d="m -10564.145,-48.92975 3082.3824,200.32829 h -3082.3824 z"
         style="fill:#000000;stroke:none;stroke-width:1.01154" />
    </g>
  </g>
</svg>
