<?xml version="1.0" encoding="UTF-8" standalone="no"?>
<!-- Created with Inkscape (http://www.inkscape.org/) -->

<svg
   width="367"
   height="224"
   id="svg3431"
   version="1.1"
   inkscape:version="1.3.2 (091e20ef0f, 2023-11-25)"
   sodipodi:docname="lafab logo motto fond blanc onlypath.svg"
   viewBox="0 0 344.0625 210.00001"
   inkscape:export-filename="lafab logo motto fond blanc.png"
   inkscape:export-xdpi="47.084469"
   inkscape:export-ydpi="47.084469"
   xmlns:inkscape="http://www.inkscape.org/namespaces/inkscape"
   xmlns:sodipodi="http://sodipodi.sourceforge.net/DTD/sodipodi-0.dtd"
   xmlns="http://www.w3.org/2000/svg"
   xmlns:svg="http://www.w3.org/2000/svg"
   xmlns:rdf="http://www.w3.org/1999/02/22-rdf-syntax-ns#"
   xmlns:cc="http://creativecommons.org/ns#"
   xmlns:dc="http://purl.org/dc/elements/1.1/">
  <defs
     id="defs3" />
  <sodipodi:namedview
     inkscape:document-units="mm"
     id="base"
     pagecolor="#0032ff"
     bordercolor="#666666"
     borderopacity="1.0"
     inkscape:pageopacity="0.0"
     inkscape:pageshadow="2"
     inkscape:zoom="1.979899"
     inkscape:cx="141.16882"
     inkscape:cy="195.21198"
     inkscape:current-layer="g4792-46-1-1"
     showgrid="false"
     inkscape:window-width="1920"
     inkscape:window-height="1051"
     inkscape:window-x="0"
     inkscape:window-y="1080"
     inkscape:window-maximized="1"
     inkscape:showpageshadow="2"
     inkscape:pagecheckerboard="0"
     inkscape:deskcolor="#d1d1d1"
     inkscape:export-bgcolor="#ffffff00" />
  <metadata
     id="metadata4">
    <rdf:RDF>
      <cc:Work
         rdf:about="">
        <dc:format>image/svg+xml</dc:format>
        <dc:type
           rdf:resource="http://purl.org/dc/dcmitype/StillImage" />
      </cc:Work>
    </rdf:RDF>
  </metadata>
  <g
     inkscape:label="Layer 1"
     inkscape:groupmode="layer"
     id="layer1"
     transform="translate(-135.72697,-150.71831)">
    <g
       id="g4792-46-1-1"
       transform="matrix(0.06604642,0,0,0.06604642,952.43374,311.65261)"
       inkscape:export-xdpi="300"
       inkscape:export-ydpi="300">
      <rect
         style="fill:#ffffff;fill-opacity:1;stroke:none;stroke-width:13.4122;stroke-linecap:square"
         id="rect1"
         width="5209.4043"
         height="3179.582"
         x="-12365.647"
         y="-2436.6846"
         ry="227.11299"
         rx="227.11301" />
      <path
         sodipodi:nodetypes="ccccc"
         inkscape:connector-curvature="0"
         id="path4573-3-0-74-7"
         d="M -12223.785,292.50261 V -2083.1004 l 1303.213,-212.4803 V 292.50261 Z"
         style="fill:#ff6600;stroke:none" />
      <path
         sodipodi:nodetypes="ccccc"
         inkscape:connector-curvature="0"
         id="path4575-7-7-09-4"
         d="m -10920.572,-2295.5807 616.192,212.4803 V 292.50261 h -616.192 z"
         style="fill:#000000;stroke:none" />
      <g
         id="text3351-1-9-6-82-77-8-9"
         style="font-weight:bold;line-height:0%;font-family:Aharoni;-inkscape-font-specification:'Aharoni Bold';letter-spacing:0px;word-spacing:0px"
         aria-label="LA&#10;FABRIQUE">
        <path
           style="font-size:953.305px;line-height:90%;letter-spacing:50px;fill:#ffffff"
           d="m -11735.369,-860.30444 h -363.541 v -635.38146 h 165.246 v 497.13361 h 198.295 z m 738.446,0 h -176.417 l -40.963,-110.78447 h -228.085 l -43.755,110.78447 h -174.556 l 244.378,-635.38146 h 180.141 z m -262.066,-236.46436 -68.425,-202.4842 -69.357,202.4842 z"
           id="path1" />
        <path
           style="font-size:953.305px;line-height:90%;letter-spacing:50px"
           d="m -11734.904,-499.46363 h -198.76 v 107.5261 h 181.072 v 138.24784 h -181.072 V -2.3299727 h -165.246 V -637.71147 h 364.006 z m 752.411,497.1336573 h -176.417 l -40.963,-110.7844673 h -228.085 l -43.755,110.7844673 h -174.556 l 244.378,-635.3814973 h 180.141 z m -262.066,-236.4643273 -68.425,-202.48421 -69.357,202.48421 z"
           id="path2" />
        <path
           style="font-size:953.305px;line-height:90%;letter-spacing:50px;fill:#ffffff"
           d="m -10375.312,-182.93658 q 0,71.21858 -40.497,115.904755 -58.651,64.7018523 -178.745,64.7018523 h -264.858 V -637.71147 h 245.774 q 178.744,0 178.744,165.71122 0,49.80646 -19.55,83.32109 -16.292,28.39433 -50.272,48.41002 76.339,15.82635 104.268,60.978 25.136,41.4278 25.136,96.35456 z m -212.26,-267.18607 q 0,-43.28973 -39.1,-57.25416 -13.964,-4.65481 -37.238,-4.65481 h -30.257 v 124.28342 h 30.257 q 42.824,0 61.443,-20.94665 14.895,-16.75731 14.895,-41.4278 z m 47.014,256.01452 q 0,-55.39223 -57.254,-65.16733 -18.154,-2.79288 -62.375,-2.79288 h -33.98 v 134.05851 h 36.773 q 63.306,0 88.442,-14.89539 28.394,-16.75731 28.394,-51.20291 z"
           id="path3" />
        <path
           style="font-size:953.305px;line-height:90%;letter-spacing:50px"
           d="m -9691.7927,-2.3299727 h -205.7426 L -10054.868,-246.24199 V -2.3299727 h -165.246 V -637.71147 h 256.9459 q 112.6464,0 166.6422,67.49473 43.7552,54.46128 43.7552,128.00727 0,84.25205 -50.272,134.52399 -32.1181,32.11819 -88.4413,44.68617 z M -9924.5332,-432.89985 q 0,-33.98011 -24.6705,-57.25416 -23.274,-21.87761 -74.9423,-21.87761 h -30.722 v 158.72901 h 30.722 q 52.1338,0 74.9423,-21.87761 24.6705,-23.73953 24.6705,-57.71963 z m 517.343,430.5698773 H -9572.436 V -637.71147 h 165.2458 z m 883.2107,18.1537577 -151.7468,23.274047 -50.2719,-59.116081 q -81.9247,40.496843 -174.0899,40.496843 -167.1077,0 -265.7896,-111.249948 -86.114,-97.285516 -86.114,-227.154706 0,-130.33467 86.114,-227.62019 98.6819,-111.24994 265.7896,-111.24994 167.5731,0 265.7896,111.24994 86.114,97.751 86.114,227.62019 0,124.7489 -83.7866,224.36182 z M -8719.947,-317.92606 q 0,-65.63281 -43.2897,-115.90476 -53.5303,-62.37444 -136.8514,-62.37444 -83.3211,0 -136.8514,62.83992 -43.2897,50.73743 -43.2897,115.43928 0,64.23637 42.8242,114.9738 53.0649,62.83993 136.8514,62.83993 23.7396,0 51.6684,-6.98222 l -101.9403,-102.40581 155.4706,-19.08472 45.1517,47.94454 q 30.2562,-46.08261 30.2562,-97.28552 z m 880.4181,46.5481 q 0,57.25415 -9.3096,97.751 -14.4299,62.83993 -68.8912,114.508311 -77.2698,73.08051 -206.6735,73.08051 -131.7311,0 -205.7426,-74.476953 -39.1004,-39.1004 -53.5303,-98.216478 -10.2406,-41.89329 -10.2406,-112.64639 v -366.33351 h 165.2457 v 343.99042 q 0,41.42781 1.3965,61.90897 4.6548,64.70185 59.1161,90.3033 22.3431,10.70606 49.341,10.70606 60.5125,0 91.2342,-42.35876 22.8086,-31.18723 22.8086,-120.55957 v -343.99042 h 165.2457 z m 544.8065,269.0479873 h -361.6787 V -637.71147 h 361.6787 v 138.24784 h -196.4329 v 107.5261 h 185.7269 v 138.24784 h -185.7269 v 113.11187 h 196.4329 z"
           id="path4" />
      </g>
      <path
         inkscape:connector-curvature="0"
         id="path4583-9-5-51-2"
         d="M -10374.281,92.174309 -7291.8992,292.50261 H -10374.281 Z"
         style="fill:#000000;stroke:none;stroke-width:1.01154" />
      <g
         id="text3351-1-9-6-4-7-84-9-71-4"
         style="font-weight:bold;line-height:0%;font-family:Aharoni;-inkscape-font-specification:'Aharoni Bold';letter-spacing:-7.67528px;word-spacing:0px"
         transform="scale(0.99418125,1.0058528)"
         aria-label="VOS IDEES SONT PLUS BELLES EN VRAI">
        <path
           style="font-size:289.548px;line-height:73%"
           d="m -12099.115,398.37908 -82.284,192.98487 h -39.021 l -81.152,-192.98487 h 54.573 l 46.514,117.34611 46.938,-117.34611 z m 217.545,97.12865 q 0,39.30388 -26.156,68.99386 -29.831,33.79002 -80.728,33.79002 -50.756,0 -80.587,-33.79002 -26.156,-29.68998 -26.156,-68.99386 0,-17.95537 7.069,-36.75903 7.069,-18.94503 18.945,-32.37621 29.832,-33.79003 80.729,-33.79003 50.897,0 80.728,33.79003 26.156,29.68998 26.156,69.13524 z m -52.17,0 q 0,-20.35885 -13.007,-35.20384 -16.683,-18.94503 -41.707,-18.94503 -17.249,0 -31.246,9.75528 -13.996,9.6139 -19.934,25.73131 -3.393,9.18976 -3.393,18.66228 0,19.51056 13.007,34.92107 16.117,19.08642 41.566,19.08642 25.448,0 41.707,-18.94504 13.007,-15.12775 13.007,-35.06245 z m 210.051,31.95207 q 0,48.91778 -42.98,63.76277 -14.986,5.23109 -32.234,5.23109 -36.194,0 -67.156,-21.91403 l 21.49,-40.43493 q 22.621,20.35885 44.252,20.35885 9.755,0 16.541,-4.52419 7.918,-5.08971 7.918,-14.42085 0,-8.48285 -8.766,-14.13808 -6.503,-4.24143 -21.914,-8.62424 -18.662,-5.51385 -23.469,-7.63456 -7.635,-3.25176 -13.007,-7.63457 -15.411,-12.72428 -15.411,-38.45559 0,-26.86237 15.976,-44.53497 18.663,-20.78299 49.766,-20.78299 31.246,0 61.218,15.69327 l -20.076,39.02112 q -16.4,-12.72428 -33.083,-12.72428 -8.059,0 -14.421,4.10005 -7.21,4.66557 -7.21,12.44152 0,7.63456 9.472,13.14842 4.242,2.54485 25.449,8.76561 26.58,7.77595 37.89,22.05541 9.755,12.15876 9.755,31.24517 z"
           id="path5" />
        <path
           style="font-size:289.548px;line-height:73%;fill:#ff6600"
           d="m -11577.017,591.36395 h -50.19 V 398.37908 h 50.19 z m 202.134,-96.56313 q 0,30.11413 -18.238,55.84544 -18.097,25.58994 -46.373,35.4866 -14.986,5.23109 -30.538,5.23109 h -74.084 V 398.37908 h 74.084 q 27.145,0 50.331,15.12775 22.763,14.70361 34.921,39.30388 9.897,20.35884 9.897,41.99011 z m -52.169,0 q 0,-19.9347 -11.17,-34.77969 -14.845,-19.65194 -44.252,-19.65194 h -11.452 v 109.00465 h 11.452 q 29.549,0 44.252,-19.65194 11.17,-14.98637 11.17,-34.92108 z m 186.299,96.56313 h -109.853 V 398.37908 h 109.853 v 41.99011 h -59.663 v 32.65898 h 56.411 v 41.99012 h -56.411 v 34.35555 h 59.663 z m 133.988,0 h -109.853 V 398.37908 h 109.853 v 41.99011 h -59.663 v 32.65898 h 56.411 v 41.99012 h -56.411 v 34.35555 h 59.663 z m 157.882,-63.90415 q 0,48.91778 -42.98,63.76277 -14.986,5.23109 -32.235,5.23109 -36.193,0 -67.156,-21.91403 l 21.49,-40.43493 q 22.621,20.35885 44.252,20.35885 9.756,0 16.542,-4.52419 7.917,-5.08971 7.917,-14.42085 0,-8.48285 -8.765,-14.13808 -6.504,-4.24143 -21.914,-8.62424 -18.663,-5.51385 -23.47,-7.63456 -7.634,-3.25176 -13.007,-7.63457 -15.41,-12.72428 -15.41,-38.45559 0,-26.86237 15.976,-44.53497 18.662,-20.78299 49.766,-20.78299 31.245,0 61.218,15.69327 l -20.076,39.02112 q -16.4,-12.72428 -33.083,-12.72428 -8.059,0 -14.421,4.10005 -7.211,4.66557 -7.211,12.44152 0,7.63456 9.473,13.14842 4.241,2.54485 25.448,8.76561 26.58,7.77595 37.891,22.05541 9.755,12.15876 9.755,31.24517 z"
           id="path6" />
        <path
           style="font-size:289.548px;line-height:73%"
           d="m -10718.655,527.4598 q 0,48.91778 -42.98,63.76277 -14.986,5.23109 -32.235,5.23109 -36.193,0 -67.156,-21.91403 l 21.49,-40.43493 q 22.621,20.35885 44.252,20.35885 9.756,0 16.542,-4.52419 7.917,-5.08971 7.917,-14.42085 0,-8.48285 -8.765,-14.13808 -6.504,-4.24143 -21.914,-8.62424 -18.663,-5.51385 -23.47,-7.63456 -7.634,-3.25176 -13.007,-7.63457 -15.41,-12.72428 -15.41,-38.45559 0,-26.86237 15.976,-44.53497 18.662,-20.78299 49.766,-20.78299 31.245,0 61.218,15.69327 l -20.076,39.02112 q -16.4,-12.72428 -33.083,-12.72428 -8.059,0 -14.421,4.10005 -7.211,4.66557 -7.211,12.44152 0,7.63456 9.473,13.14842 4.241,2.54485 25.449,8.76561 26.579,7.77595 37.89,22.05541 9.755,12.15876 9.755,31.24517 z m 228.996,-31.95207 q 0,39.30388 -26.155,68.99386 -29.832,33.79002 -80.729,33.79002 -50.755,0 -80.587,-33.79002 -26.155,-29.68998 -26.155,-68.99386 0,-17.95537 7.069,-36.75903 7.069,-18.94503 18.945,-32.37621 29.831,-33.79003 80.728,-33.79003 50.897,0 80.729,33.79003 26.155,29.68998 26.155,69.13524 z m -52.169,0 q 0,-20.35885 -13.007,-35.20384 -16.683,-18.94503 -41.708,-18.94503 -17.248,0 -31.245,9.75528 -13.997,9.6139 -19.935,25.73131 -3.393,9.18976 -3.393,18.66228 0,19.51056 13.007,34.92107 16.118,19.08642 41.566,19.08642 25.449,0 41.708,-18.94504 13.007,-15.12775 13.007,-35.06245 z m 269.007,95.85622 h -50.191 l -92.321,-118.1944 v 118.1944 h -50.191 V 398.37908 h 50.191 l 92.321,118.05302 V 398.37908 h 50.191 z m 147.136,-150.99476 h -41.566 v 150.99476 h -50.19 V 440.36919 h -40.859 v -41.99011 h 132.615 z m 233.763,21.63127 q 0,26.15546 -12.3001,43.26255 -15.9761,22.19679 -53.0179,22.19679 h -31.3865 v 63.90415 h -50.1905 V 398.37908 h 79.8805 q 34.0728,0 51.7454,19.9347 15.2691,17.10708 15.2691,43.68668 z m -52.1695,0.56553 q 0,-10.74495 -6.3622,-17.10709 -6.2207,-6.50352 -21.3485,-6.50352 h -16.8243 v 47.92812 h 16.6829 q 16.2588,0 22.3382,-7.06905 5.5139,-6.36214 5.5139,-17.24846 z m 181.4923,128.79796 h -110.4184 V 398.37908 h 50.1902 v 150.99476 h 60.2282 z m 186.4405,-81.71814 q 0,17.38985 -2.8276,29.68999 -4.3828,19.08641 -20.9244,34.77969 -23.4692,22.19679 -62.7731,22.19679 -40.0107,0 -62.4903,-22.62094 -11.876,-11.87599 -16.2588,-29.83136 -3.1104,-12.72427 -3.1104,-34.21417 V 398.37908 h 50.1902 v 104.48045 q 0,12.5829 0.4242,18.80366 1.4138,19.65194 17.9553,27.42789 6.7863,3.25175 14.9864,3.25175 18.3795,0 27.7107,-12.86565 6.9276,-9.47252 6.9276,-36.61765 V 398.37908 h 50.1902 z m 166.506,17.81399 q 0,48.91778 -42.9798,63.76277 -14.9864,5.23109 -32.2348,5.23109 -36.1935,0 -67.1559,-21.91403 l 21.4899,-40.43493 q 22.6209,20.35885 44.2522,20.35885 9.7553,0 16.5415,-4.52419 7.9174,-5.08971 7.9174,-14.42085 0,-8.48285 -8.7656,-14.13808 -6.5036,-4.24143 -21.9141,-8.62424 -18.6623,-5.51385 -23.4692,-7.63456 -7.6346,-3.25176 -13.007,-7.63457 -15.4106,-12.72428 -15.4106,-38.45559 0,-26.86237 15.9761,-44.53497 18.6623,-20.78299 49.766,-20.78299 31.2452,0 61.218,15.69327 l -20.0761,39.02112 q -16.4002,-12.72428 -33.0831,-12.72428 -8.0588,0 -14.4209,4.10005 -7.2104,4.66557 -7.2104,12.44152 0,7.63456 9.4725,13.14842 4.2414,2.54485 25.4486,8.76561 26.5796,7.77595 37.89,22.05541 9.7553,12.15876 9.7553,31.24517 z m 243.5178,9.04838 q 0,21.63127 -12.3001,35.20383 -17.814,19.65194 -54.2903,19.65194 h -80.4457 V 398.37908 h 74.6491 q 54.2903,0 54.2903,50.33158 0,15.12776 -5.938,25.30718 -4.9483,8.62423 -15.2691,14.70361 23.1864,4.80695 31.6693,18.52089 7.6345,12.5829 7.6345,29.26584 z m -64.4696,-81.15262 q 0,-13.14842 -11.876,-17.38984 -4.2415,-1.41381 -11.3105,-1.41381 h -9.1898 v 37.74869 h 9.1898 q 13.007,0 18.6623,-6.36214 4.5242,-5.08971 4.5242,-12.5829 z m 14.2794,77.75948 q 0,-16.82432 -17.3898,-19.79332 -5.5139,-0.84829 -18.9451,-0.84829 h -10.3208 v 40.71769 h 11.1691 q 19.2278,0 26.8624,-4.52419 8.6242,-5.08971 8.6242,-15.55189 z m 184.3198,58.24891 h -109.8529 V 398.37908 h 109.8529 v 41.99011 h -59.6627 v 32.65898 h 56.4109 v 41.99012 h -56.4109 v 34.35555 h 59.6627 z m 134.5541,0 h -110.4185 V 398.37908 h 50.1902 v 150.99476 h 60.2283 z m 128.4743,0 h -110.4184 V 398.37908 h 50.1902 v 150.99476 h 60.2282 z m 127.9091,0 h -109.8529 V 398.37908 h 109.8529 v 41.99011 h -59.6627 v 32.65898 h 56.4109 v 41.99012 h -56.4109 v 34.35555 h 59.6627 z m 157.8817,-63.90415 q 0,48.91778 -42.9798,63.76277 -14.9864,5.23109 -32.2349,5.23109 -36.1935,0 -67.1559,-21.91403 l 21.4899,-40.43493 q 22.621,20.35885 44.2522,20.35885 9.7553,0 16.5416,-4.52419 7.9173,-5.08971 7.9173,-14.42085 0,-8.48285 -8.7656,-14.13808 -6.5035,-4.24143 -21.914,-8.62424 -18.6623,-5.51385 -23.4693,-7.63456 -7.6345,-3.25176 -13.007,-7.63457 -15.4105,-12.72428 -15.4105,-38.45559 0,-26.86237 15.976,-44.53497 18.6623,-20.78299 49.7661,-20.78299 31.2452,0 61.2179,15.69327 l -20.0761,39.02112 q -16.4002,-12.72428 -33.0831,-12.72428 -8.0587,0 -14.4208,4.10005 -7.2105,4.66557 -7.2105,12.44152 0,7.63456 9.4726,13.14842 4.2414,2.54485 25.4485,8.76561 26.5796,7.77595 37.8901,22.05541 9.7553,12.15876 9.7553,31.24517 z"
           id="path7" />
        <path
           style="font-size:289.548px;line-height:73%;fill:#ff6600"
           d="m -8276.8515,591.36395 h -109.8529 V 398.37908 h 109.8529 v 41.99011 h -59.6627 v 32.65898 h 56.411 v 41.99012 h -56.411 v 34.35555 h 59.6627 z m 216.8375,0 h -50.1902 l -92.3217,-118.1944 v 118.1944 h -50.1902 V 398.37908 h 50.1902 l 92.3217,118.05302 V 398.37908 h 50.1902 z m 287.487,-192.98487 -82.2836,192.98487 h -39.0212 l -81.1526,-192.98487 h 54.573 l 46.5143,117.34611 46.9385,-117.34611 z m 173.0096,192.98487 h -62.4903 l -47.7868,-74.08357 v 74.08357 h -50.1902 V 398.37908 h 78.0423 q 34.2141,0 50.6143,20.50022 13.2898,16.54156 13.2898,38.87974 0,25.58993 -15.2691,40.85907 -9.7553,9.75528 -26.8624,13.57256 z m -70.6904,-130.77729 q 0,-10.32081 -7.4932,-17.38985 -7.0691,-6.6449 -22.7623,-6.6449 h -9.3312 v 48.21087 h 9.3312 q 15.8346,0 22.7623,-6.6449 7.4932,-7.21042 7.4932,-17.53122 z m 267.452,130.77729 h -53.5833 l -12.4416,-33.64864 h -69.2766 l -13.2898,33.64864 h -53.0178 l 74.2249,-192.98487 h 54.7144 z m -79.5974,-71.82147 -20.783,-61.50068 -21.0658,61.50068 z m 144.3092,71.82147 h -50.1902 V 398.37908 h 50.1902 z"
           id="path8" />
      </g>
    </g>
  </g>
</svg>
