<?xml version="1.0" encoding="UTF-8" standalone="no"?>
<!-- Created with Inkscape (http://www.inkscape.org/) -->

<svg
   width="41.461926mm"
   height="18.771589mm"
   viewBox="0 0 41.461925 18.77159"
   version="1.1"
   id="svg1"
   xml:space="preserve"
   inkscape:version="1.4 (e7c3feb100, 2024-10-09)"
   sodipodi:docname="lipops_logo.svg"
   inkscape:export-filename="lipops_logo.png"
   inkscape:export-xdpi="96"
   inkscape:export-ydpi="96"
   xmlns:inkscape="http://www.inkscape.org/namespaces/inkscape"
   xmlns:sodipodi="http://sodipodi.sourceforge.net/DTD/sodipodi-0.dtd"
   xmlns="http://www.w3.org/2000/svg"
   xmlns:svg="http://www.w3.org/2000/svg"><sodipodi:namedview
     id="namedview1"
     pagecolor="#ffffff"
     bordercolor="#000000"
     borderopacity="0.25"
     inkscape:showpageshadow="2"
     inkscape:pageopacity="0.0"
     inkscape:pagecheckerboard="0"
     inkscape:deskcolor="#d1d1d1"
     inkscape:document-units="mm"
     showguides="true"
     inkscape:zoom="4.0265009"
     inkscape:cx="64.572194"
     inkscape:cy="51.781933"
     inkscape:window-width="1920"
     inkscape:window-height="1008"
     inkscape:window-x="0"
     inkscape:window-y="0"
     inkscape:window-maximized="1"
     inkscape:current-layer="layer1" /><defs
     id="defs1" /><g
     inkscape:label="Calque 1"
     inkscape:groupmode="layer"
     id="layer1"
     transform="translate(-19.156499,-13.335263)"><path
       id="path5"
       style="font-variation-settings:normal;opacity:1;vector-effect:none;fill:none;fill-opacity:1;stroke:#eb0000;stroke-width:1;stroke-linecap:butt;stroke-linejoin:miter;stroke-miterlimit:4;stroke-dasharray:none;stroke-dashoffset:0;stroke-opacity:1;-inkscape-stroke:none;stop-color:#000000;stop-opacity:1"
       d="m 31.146771,27.657175 h -9.056503 l -0.118587,-9.720608 h 1.256714 m 21.126182,9.720608 H 33.937718 m -8.391781,-9.720608 h 28.457634 c 6.272073,0 5.486003,9.720608 0,9.720608 h -6.56972"
       sodipodi:nodetypes="cccccccccc" /><path
       style="font-variation-settings:normal;opacity:1;fill:none;fill-opacity:1;stroke:#000000;stroke-width:1;stroke-linecap:butt;stroke-linejoin:miter;stroke-miterlimit:4;stroke-dasharray:none;stroke-dashoffset:0;stroke-opacity:1"
       d="m 24.347977,14.858239 v 10.557749 h 3.670682"
       id="path6"
       sodipodi:nodetypes="ccc" /><path
       id="path10"
       style="font-variation-settings:normal;opacity:1;fill:none;fill-opacity:1;stroke:#000000;stroke-width:1;stroke-linecap:butt;stroke-linejoin:miter;stroke-miterlimit:4;stroke-dasharray:none;stroke-dashoffset:0;stroke-opacity:1"
       d="m 32.530379,21.299222 c 0.769483,-0.45139 1.166278,-0.736464 1.812108,-0.74343 1.370515,-0.01478 2.302873,0.961442 2.323218,2.46261 0.01701,1.254804 -0.891318,2.31479 -2.13736,2.323217 -0.807923,0.0055 -1.456182,-0.161371 -1.997966,-0.557572 m 0,-4.809059 v 10.911406"
       sodipodi:nodetypes="csssccc" /><path
       style="font-variation-settings:normal;opacity:1;fill:none;fill-opacity:1;stroke:#000000;stroke-width:1;stroke-linecap:butt;stroke-linejoin:miter;stroke-miterlimit:4;stroke-dasharray:none;stroke-dashoffset:0;stroke-opacity:1"
       d="m 55.088951,21.11255 c -0.295662,-0.312335 -0.696706,-0.539763 -1.434137,-0.539763 -0.737431,0 -1.395168,0.652698 -1.395168,1.266567 0,0.613869 0.6054,1.135121 1.395168,1.137616 0.789768,0.0025 1.487899,0.352451 1.484206,1.141263 -0.0037,0.788812 -0.851505,1.26292 -1.484206,1.26292 -0.632701,0 -1.136451,-0.374167 -1.557093,-0.81406"
       id="path13"
       sodipodi:nodetypes="czzzzzc" /><ellipse
       style="font-variation-settings:normal;opacity:1;vector-effect:none;fill:none;fill-opacity:1;stroke:#eb0000;stroke-width:1;stroke-linecap:butt;stroke-linejoin:miter;stroke-miterlimit:4;stroke-dasharray:none;stroke-dashoffset:0;stroke-opacity:1;-inkscape-stroke:none;stop-color:#000000;stop-opacity:1"
       id="path15"
       cx="41.267082"
       cy="22.996958"
       rx="2.4397292"
       ry="2.3927956" /><g
       id="g1"
       transform="translate(0.1763571)"><path
         style="font-variation-settings:normal;opacity:1;fill:none;fill-opacity:1;stroke:#000000;stroke-width:1;stroke-linecap:butt;stroke-linejoin:miter;stroke-miterlimit:4;stroke-dasharray:none;stroke-dashoffset:0;stroke-opacity:1"
         d="m 29.848161,21.525126 v 4.306709"
         id="path7"
         sodipodi:nodetypes="cc" /><circle
         style="font-variation-settings:normal;vector-effect:none;fill:#eb0000;fill-opacity:1;stroke:none;stroke-width:1;stroke-linecap:butt;stroke-linejoin:miter;stroke-miterlimit:4;stroke-dasharray:none;stroke-dashoffset:0;stroke-opacity:1;-inkscape-stroke:none;stop-color:#000000"
         id="path15-7"
         cx="29.848162"
         cy="19.987919"
         r="0.75" /></g><path
       id="path16"
       style="font-variation-settings:normal;opacity:1;fill:none;fill-opacity:1;stroke:#000000;stroke-width:1;stroke-linecap:butt;stroke-linejoin:miter;stroke-miterlimit:4;stroke-dasharray:none;stroke-dashoffset:0;stroke-opacity:1"
       d="m 45.868235,21.299222 c 0.769483,-0.45139 1.166278,-0.736464 1.812108,-0.74343 1.370515,-0.01478 2.302873,0.961442 2.323218,2.46261 0.01701,1.254804 -0.891318,2.31479 -2.13736,2.323217 -0.807923,0.0055 -1.456182,-0.161371 -1.997966,-0.557572 m 0,-4.809059 v 10.911406"
       sodipodi:nodetypes="csssccc" /></g></svg>
