<?xml version="1.0" encoding="utf-8"?>
<!-- Hackstub logo v1 - 2015 -->
	 
<!DOCTYPE svg PUBLIC "-//W3C//DTD SVG 1.1//EN" "http://www.w3.org/Graphics/SVG/1.1/DTD/svg11.dtd">
<svg version="1.1" xmlns="http://www.w3.org/2000/svg" xmlns:xlink="http://www.w3.org/1999/xlink" x="346.334px" y="183.7px"
	 width="200px" height="200px" viewBox="346.334 183.7 200 200" enable-background="new 0 0 833.669 850.4" xml:space="preserve">

<g id="PRINT">
	<g id="LOGO-B-PRINT" fill="#282828">
		<g id="hack_stub-w">
			<path d="M512.465,284.896l-22.069-12.759V257.96c0-2.708-2.196-4.904-4.904-4.904s-4.904,2.195-4.904,4.904
			v36.854l-17.162-9.919c-1.52-0.877-3.391-0.877-4.908,0l-7.354,4.251V260.79l17.161,9.92c0.772,0.446,1.617,0.658,2.449,0.658
			c1.694,0,3.342-0.878,4.251-2.45c1.354-2.345,0.553-5.344-1.792-6.7l-17.175-9.927l12.271-7.093
			c2.345-1.355,3.146-4.355,1.792-6.7c-1.355-2.344-4.354-3.147-6.7-1.792l-12.257,7.085v-8.51c0-2.708-2.196-4.904-4.904-4.904
			s-4.904,2.195-4.904,4.904v14.958c-0.834-0.001-1.68,0.19-2.454,0.638l-19.615,11.339c-1.516,0.876-2.45,2.495-2.45,4.246
			s0.934,3.369,2.45,4.246l22.069,12.757v12.13c-0.834-0.001-1.68,0.19-2.454,0.638l-19.615,11.339
			c-1.516,0.877-2.45,2.495-2.45,4.246s0.934,3.369,2.45,4.246l17.175,9.927l-17.175,9.927c-2.345,1.355-3.147,4.355-1.792,6.7
			c0.909,1.572,2.556,2.451,4.25,2.45c0.833,0,1.677-0.212,2.45-0.658l24.52-14.173c0.063-0.037,0.12-0.083,0.183-0.122
			c0.065-0.042,0.129-0.084,0.192-0.129c0.221-0.156,0.431-0.324,0.62-0.513c0.007-0.006,0.015-0.012,0.021-0.019
			c0.196-0.197,0.368-0.414,0.527-0.64c0.044-0.062,0.085-0.124,0.126-0.188c0.134-0.21,0.255-0.428,0.356-0.656
			c0.014-0.03,0.031-0.059,0.044-0.09c0.107-0.256,0.185-0.523,0.247-0.796c0.018-0.073,0.031-0.146,0.045-0.221
			c0.052-0.286,0.088-0.576,0.088-0.873v-25.517l9.808-5.67l22.066,12.754c0.149,0.086,0.305,0.157,0.461,0.227
			c0.037,0.017,0.07,0.038,0.108,0.054c0.259,0.107,0.525,0.186,0.796,0.247c0.072,0.017,0.146,0.03,0.219,0.043
			c0.288,0.052,0.578,0.088,0.87,0.088s0.582-0.036,0.871-0.088c0.073-0.013,0.145-0.026,0.217-0.043
			c0.271-0.062,0.539-0.14,0.799-0.248c0.035-0.015,0.067-0.035,0.104-0.051c0.156-0.069,0.313-0.142,0.464-0.229l24.52-14.172
			c1.516-0.877,2.45-2.495,2.45-4.246S513.981,285.771,512.465,284.896z M431.538,266.463l9.816-5.675v11.349L431.538,266.463z
			 M431.538,311.818l9.816-5.674v11.348L431.538,311.818z M490.396,294.814v-11.35l9.816,5.676L490.396,294.814z"/>
			
			<path d="M436.45,289.142c0-1.751-0.934-3.369-2.45-4.246l-24.446-14.131c-0.731-0.44-1.587-0.696-2.501-0.701
			c-0.003-0.001-0.003-0.001-0.003,0c-0.015,0-0.03,0-0.044,0c-0.002,0-0.003,0-0.003,0c-0.915,0.005-1.771,0.261-2.502,0.701
			l-12.184,7.043v-8.51c0-2.708-2.195-4.904-4.904-4.904s-4.904,2.196-4.904,4.904v45.354c0,2.708,2.195,4.904,4.904,4.904
			s4.904-2.196,4.904-4.904v-25.515l9.808-5.67v19.848c0,1.753,0.935,3.372,2.453,4.247c0.758,0.438,1.604,0.657,2.451,0.657
			c0.847,0,1.695-0.22,2.454-0.658L434,293.388C435.516,292.511,436.45,290.893,436.45,289.142z M411.93,294.815v-11.349
			l9.817,5.675L411.93,294.815z"/>
		</g>
	</g>
</g>

</svg>
