<?xml version="1.0" encoding="UTF-8"?>
<!-- Generator: Adobe Illustrator 25.4.1, SVG Export Plug-In . SVG Version: 6.00 Build 0)  -->
<svg version="1.1" id="Calque_1" xmlns="http://www.w3.org/2000/svg" xmlns:xlink="http://www.w3.org/1999/xlink" x="0px" y="0px" viewBox="0 0 2211.6 343" style="enable-background:new 0 0 2211.6 343;" xml:space="preserve">
<style type="text/css">
	.st0{fill:#2DAEE0;}
	.st1{fill:#2C2E36;}
</style>
<path class="st0" d="M192.4,286l-20.3-122.8c-0.8-5-5.1-8.6-10.2-8.6H70.5L42.1,8.3c-1-5.1-5.6-8.6-10.7-8.3  c-5.2,0.3-9.3,4.4-9.6,9.6L0.3,332c-0.2,3.3,1.2,6.5,3.7,8.6c1.9,1.5,4.2,2.4,6.6,2.4c0.9,0,1.7-0.1,2.6-0.3l109.7-28.8  c0.8,0.2,1.6,0.2,2.4,0l16.6-4.3c0.9-0.2,1.6-0.7,2.2-1.3l40.9-10.7C190,296.3,193.3,291.2,192.4,286z M139.8,288.2  c-19-46.7-60.3-81.4-109.9-91.8l1.5-22.1c0.6,0.3,1.2,0.5,1.9,0.6C93.5,182,144,224.7,161.2,282.6L139.8,288.2z M87.6,301.8  c-12.1-25-34.5-43.8-61.3-51.4l1.8-27.2c38.1,9.2,69.9,36,85.6,71.8L87.6,301.8z M161.1,222.8c-14.4-19.1-32.3-35.3-52.8-47.7h44.9  L161.1,222.8z M49,152.3c-4.9-1-9.9-1.8-14.9-2.3c-0.4,0-0.7,0-1.1,0l4-59.8L49,152.3z M24.4,279c14.8,5.8,27.3,16.5,35.4,30.1  l-38.1,10L24.4,279z"/>
<g>
	<rect x="767.8" y="159.2" class="st0" width="160.4" height="129"/>
	<rect x="1495.1" y="159.2" class="st0" width="114.2" height="129"/>
	<path class="st1" d="M320.4,265.6h-30.8l-4.3,22.7h-35.6l29.1-121.4v-7.6h53.7l29.4,129.1h-37.3L320.4,265.6z M295.3,236.6h20   l-6.9-38.2l-2.7-16.7l-2.7,16.7L295.3,236.6z"/>
	<path class="st1" d="M370,159.2h36.3v99.1H444v30h-74V159.2z"/>
	<path class="st1" d="M511.1,253.1c0-5.7-4.9-9.9-24.8-16.4c-19-6.2-34-17.1-34-39.7c0-27.2,22.5-40.5,47-40.5   c24.5,0,46.6,13.1,45.3,44.6l-33.6,0.9c0-10.7-4.4-15.5-11.9-15.5c-5.5,0-10.3,2.7-10.3,8c0,6.5,3.7,9.9,24.8,17.2   c20,7.1,34,16,34,40.4S527.3,291,500.2,291c-26,0-50-13.4-48.5-44.5l33.6-0.9c0,11.3,6.8,15.4,14.8,15.4   C507,261.1,511.1,258.5,511.1,253.1z"/>
	<path class="st1" d="M618.2,265.6h-30.9l-4.3,22.7h-35.5l29.1-121.4v-7.6h53.6l29.4,129.1h-37.3L618.2,265.6z M593,236.6h20   l-6.9-38.2l-2.7-16.7l-2.7,16.7L593,236.6z"/>
	<path class="st1" d="M723.2,202c0-10.3-4.7-15.5-11.9-15.5s-11.9,4.6-12.3,13.8c-0.5,12.3-0.4,32,0,45.8   c0.4,9.9,4.9,14.9,12.2,14.9c6.5,0,12.9-5,12.9-15.4l33.6,0.9c0,26.4-18,44.5-47.4,44.5c-27.6,0-47-16-47.7-43.1   c-0.4-20-0.6-36.2,0-49.3c1.1-28.2,24-42.2,48.6-42.2c25.1,0,46.4,14,45.4,44.6L723.2,202z"/>
	<path class="st1" d="M767.8,159.2h77.1v30h-40.8v19.1h36.9v28.8h-36.9v20.9h40.8v30h-77.1V159.2z"/>
	<path class="st1" d="M964.7,239.7v48.5h-36.5V159.2c0,0,17.5-0.4,36.7-0.4c32.4,0,58,6,58,36.2c0.5,15.6-9.2,29.8-24,35.1   c4.1,2.6,7.3,6.4,9.1,11c7.3,14.9,20.7,47.3,20.7,47.3H990l-20-48.5L964.7,239.7z M969.8,187.1c-1.7-0.1-3.4,0-5,0.2v27   c1.4,0.4,2.7,0.5,3.9,0.4c8.4,0,18.1-1.8,18.1-13.8C986.8,191.9,981.8,187.1,969.8,187.1L969.8,187.1z"/>
	<path class="st1" d="M1036.2,159.2h77.1v30h-40.5v19.2h36.9v28.8h-36.9v20.9h40.8v30h-77.2V159.2H1036.2z"/>
	<path class="st1" d="M1185.9,253c0-5.7-4.9-9.9-24.8-16.4c-19-6.2-34-17.1-34-39.7c0-27.2,22.5-40.5,47-40.5s46.6,13.1,45.3,44.6   l-33.6,0.9c0-10.7-4.3-15.5-11.9-15.5c-5.7,0-10.3,2.7-10.3,8c0,6.5,3.7,9.9,24.8,17.2c20,7.1,34,16,34,40.4s-20.4,38.9-47.4,38.9   c-26,0-50-13.4-48.5-44.5l33.6-0.9c0,11.3,6.8,15.4,14.7,15.4C1181.8,261,1185.9,258.4,1185.9,253z"/>
	<path class="st1" d="M1235,159.2h77.1v30h-40.8v19.2h36.9v28.8h-36.9v20.9h40.8v30H1235V159.2z"/>
	<path class="st1" d="M1389.2,265.6h-30.9l-4.3,22.7h-35.5l29.1-121.4v-7.6h53.6l29.4,129.1h-37.3L1389.2,265.6z M1364,236.5h20   l-6.9-38.2l-2.7-16.7l-2.7,16.7L1364,236.5z"/>
	<path class="st1" d="M1529.3,159.2c0,0,0.6,46.1,0,90c-0.4,27.2-22.7,41.7-48,41.7c-25.2,0-46.6-14.2-46.9-42.1   c-0.5-40.4,0-89.7,0-89.7h34.7c-0.2,11.1-0.4,75.6,0,87.1c0,9.2,5.4,14.7,12.9,14.7c7.5,0,11.9-5.7,12.3-14.7   c0.4-10.6,0-75.1,0-87.1H1529.3z"/>
	<path class="st1" d="M1711.7,159.2v129.1h-32l-30.4-53.1l-5.4-14.9v68h-34.6V159.2h31.4l32,60l4.3,11.9v-71.9H1711.7z"/>
	<path class="st1" d="M1729.8,159.2h77.1v30h-40.6v19.2h36.9v28.8h-36.9v20.9h40.6v30h-77.1V159.2z"/>
	<path class="st1" d="M1916.5,159.2c0,0,0.6,46.1,0,90c-0.4,27.2-22.7,41.7-47.8,41.7s-46.6-14.2-46.9-42.1c-0.6-40.4,0-89.7,0-89.7   h34.7c0,11.1-0.4,75.6,0,87.1c0.2,9.2,5.4,14.7,12.9,14.7c7.5,0,11.9-5.7,12.3-14.7c0.4-10.6,0.2-75.1,0-87.1H1916.5z"/>
	<path class="st1" d="M1952.1,189.2h-28.8v-30h94.2v30h-28.9v99.1h-36.3L1952.1,189.2z"/>
	<path class="st1" d="M2062.8,239.7v48.5h-36.3V159.2c0,0,17.5-0.4,36.7-0.4c32.4,0,58,6,58,36.2c0.5,15.6-9.2,29.8-24,35.1   c4.1,2.6,7.3,6.4,9.1,11c7.3,14.9,20.8,47.3,20.8,47.3h-38.8l-20-48.5L2062.8,239.7z M2068,187.1c-1.7-0.1-3.4,0-5,0.2v27   c1.4,0.4,2.7,0.5,3.9,0.4c8.4,0,18.2-1.8,18.2-13.8C2085.1,191.9,2080,187.1,2068,187.1L2068,187.1z"/>
	<path class="st1" d="M2134.5,159.2h77.1v30h-40.8v19.2h36.9v28.8h-36.9v20.9h40.8v30h-77.1V159.2z"/>
</g>
</svg>